<svg width="524" height="532" viewBox="0 0 524 532" fill="none" xmlns="http://www.w3.org/2000/svg">
<path d="M409.5 374.5C401.9 370.5 398 372.833 397 374.5C388.167 382.167 369.7 398.8 366.5 404C363.3 409.2 364.833 414.5 366 416.5L479.5 530C485.9 532.4 490.833 531 492.5 530L522.5 500C524.9 493.2 523.5 488.833 522.5 487.5C488 451.5 417.1 378.5 409.5 374.5Z" fill="#BABABA"/>
<path d="M381.5 368L365.5 352C357.9 359.6 347.333 368.5 343 372L360 389L381.5 368Z" fill="#BABABA"/>
<circle cx="205.5" cy="205.5" r="205.5" fill="#BABABA"/>
<circle cx="207" cy="204" r="173" fill="#F5F5F5"/>
<circle cx="207" cy="205" r="162" fill="#BABABA"/>
<circle cx="123.5" cy="135.5" r="19" fill="white" stroke="#BABABA"/>
<circle cx="123.5" cy="182.5" r="19" fill="white" stroke="#BABABA"/>
<circle cx="123.5" cy="229.5" r="19" fill="white" stroke="#BABABA"/>
<circle cx="123.5" cy="276.5" r="19" fill="white" stroke="#BABABA"/>
<rect x="161.5" y="130.5" width="154" height="10" fill="white" stroke="#BABABA"/>
<rect x="161.5" y="177.5" width="154" height="10" fill="white" stroke="#BABABA"/>
<rect x="161.5" y="224.5" width="154" height="10" fill="white" stroke="#BABABA"/>
<rect x="161.5" y="271.5" width="154" height="10" fill="white" stroke="#BABABA"/>
</svg>
